<?xml version="1.0" encoding="utf-8"?>
<!-- Generator: Adobe Illustrator 27.5.0, SVG Export Plug-In . SVG Version: 6.00 Build 0)  -->
<svg version="1.1" xmlns="http://www.w3.org/2000/svg" xmlns:xlink="http://www.w3.org/1999/xlink" x="0px" y="0px"
	 viewBox="0 0 500 500" style="enable-background:new 0 0 500 500;" xml:space="preserve">
<g id="BACKGROUND">
</g>
<g id="OBJECTS">
	<g>
		<g>
			<g>
				<path style="fill:#BC8F65;" d="M199.282,401.361c0.086-0.061,0.217-0.124,0.404-0.177c0.088-0.129,0.178-0.286,0.266-0.498
					c0.005-0.011,0.012-0.022,0.016-0.033c-29.419-18.488-47.847-51.952-47.847-88.56v-131.79c0-18.421,4.715-36.376,13.48-52.086
					c-0.252-0.217-0.505-0.434-0.757-0.65c-8.908,15.896-13.698,34.081-13.698,52.737v131.79c0,36.871,18.528,70.585,48.123,89.272
					C199.273,401.364,199.277,401.363,199.282,401.361z"/>
				<path style="fill:#BC8F65;" d="M335.812,127.635c-0.163,0.089-0.328,0.175-0.49,0.267c-0.121,0.069-0.237,0.146-0.357,0.216
					c8.8,15.734,13.534,33.727,13.534,52.185v131.79c0,36.742-18.554,70.307-48.154,88.753c0.163,0.281,0.328,0.562,0.497,0.84
					c29.894-18.621,48.632-52.505,48.632-89.593v-131.79C349.473,161.675,344.695,143.515,335.812,127.635z"/>
			</g>
		</g>
		<g>
			<path style="fill:#EDD8C3;" d="M340.986,180.314v106.526c-0.842-0.171-1.683-0.375-2.525-0.591
				c-10.862-2.889-21.223-7.052-30.868-12.898c-3.81-2.309-7.666-4.572-11.783-6.312c-2.252-0.944-4.265-2.172-6.074-3.81
				c-1.797-1.604-3.708-3.116-5.88-4.174c-1.16-0.557-1.445-1.228-1.263-2.445c0.364-2.491-0.057-4.856-1.444-7.029
				c-1.729-2.73-4.06-4.811-6.676-6.619c-1.058-0.739-2.138-1.444-3.219-2.15c3.401-0.034,6.688-0.512,9.986-0.796
				c2.616-0.228,5.232-0.523,7.825-0.933c4.197-0.648,8.246-1.956,12.34-3.059c9.736-2.627,16.856-8.428,20.45-18.016
				c1.547-4.106,2.536-8.382,1.717-12.852c-1.194-6.551-3.253-12.841-5.402-19.142c-3.64-10.725-9.088-20.484-15.343-29.799
				c-4.322-6.449-9.918-11.817-15.65-17.026c-10.646-9.679-22.941-14.956-37.101-15.536c-1.149-0.046-2.298-0.068-3.469-0.057
				c-0.58,0-1.171,0.023-1.751,0.046c-4.493,0.159-8.928,0.705-13.387,1.217c-6.346,0.716-12.591,2.013-18.744,3.73
				c-1.513,0.432-2.946,1.285-4.413,1.57c-1.456,0.284-1.706,1.16-2.161,2.093c-1.285,2.684-2.252,5.493-2.991,8.382
				c-0.102,0.387-0.091,0.842-0.5,1.171c-2.32,1.831-3.776,4.345-5.334,6.79c-2.775,4.345-4.436,9.11-5.118,14.206
				c-0.569,4.299,0.091,8.553,0.637,12.818c0.307,2.343,0.33,4.561-1.479,6.483c-0.933,0.99-1.672,2.138-3.23,2.821
				c0.307,0.114,0.58,0.182,0.842,0.216h0.136c1.115,0.068,1.956-0.535,2.934-0.876c0.057-0.023,0.114-0.046,0.182-0.068
				c-0.432,2.093-1.342,3.878-2.104,5.71c-0.728,1.786-0.99,3.594-0.682,5.528c1.171,7.552,2.809,15.025,4.697,22.44
				c1.126,4.436,2.536,8.803,3.128,13.376c0.091,0.762,0.353,1.547,1.012,2.081c1.74,1.41,3.64,2.298,5.869,2.32
				c0.284,0,0.58-0.011,0.887-0.034c2.036-0.182,4.06-0.227,6.119-0.318c0.057,0,0.125-0.011,0.182-0.011
				c0.364,1.274,0.682,2.502,1.058,3.697c0.102,0.341,0.023,0.591-0.136,0.876c-0.876,1.422-0.807,2.957-0.25,4.424
				c0.409,1.081,0.557,2.081,0.193,3.173c-0.284,0.796-0.341,1.638-0.262,2.468c0.091,0.842-0.216,1.331-0.944,1.797
				c-2.821,1.808-4.038,4.629-4.595,7.78c-0.66,3.753-0.193,7.427,1.16,10.975c1.604,4.174,1.149,8.28-0.478,12.272
				c-1.672,4.094-3.56,8.109-5.846,11.908c-8.792,14.547-17.242,29.287-24.26,44.801c-2.411,5.312-4.436,10.771-6.142,16.321
				c-0.034-0.068-0.068-0.125-0.102-0.193c-7.074-12.909-11.101-27.729-11.101-43.493V180.314c0-50.078,40.604-90.682,90.682-90.682
				c25.033,0,47.701,10.157,64.113,26.558C330.84,132.601,340.986,155.269,340.986,180.314z"/>
			<g>
				<defs>
					<path id="SVGID_1_" d="M340.986,180.314v106.526c-0.842-0.171-1.683-0.375-2.525-0.591
						c-10.862-2.889-21.223-7.052-30.868-12.898c-3.81-2.309-7.666-4.572-11.783-6.312c-2.252-0.944-4.265-2.172-6.074-3.81
						c-1.797-1.604-3.708-3.116-5.88-4.174c-1.16-0.557-1.445-1.228-1.263-2.445c0.364-2.491-0.057-4.856-1.444-7.029
						c-1.729-2.73-4.06-4.811-6.676-6.619c-1.058-0.739-2.138-1.444-3.219-2.15c3.401-0.034,6.688-0.512,9.986-0.796
						c2.616-0.228,5.232-0.523,7.825-0.933c4.197-0.648,8.246-1.956,12.34-3.059c9.736-2.627,16.856-8.428,20.45-18.016
						c1.547-4.106,2.536-8.382,1.717-12.852c-1.194-6.551-3.253-12.841-5.402-19.142c-3.64-10.725-9.088-20.484-15.343-29.799
						c-4.322-6.449-9.918-11.817-15.65-17.026c-10.646-9.679-22.941-14.956-37.101-15.536c-1.149-0.046-2.298-0.068-3.469-0.057
						c-0.58,0-1.171,0.023-1.751,0.046c-4.493,0.159-8.928,0.705-13.387,1.217c-6.346,0.716-12.591,2.013-18.744,3.73
						c-1.513,0.432-2.946,1.285-4.413,1.57c-1.456,0.284-1.706,1.16-2.161,2.093c-1.285,2.684-2.252,5.493-2.991,8.382
						c-0.102,0.387-0.091,0.842-0.5,1.171c-2.32,1.831-3.776,4.345-5.334,6.79c-2.775,4.345-4.436,9.11-5.118,14.206
						c-0.569,4.299,0.091,8.553,0.637,12.818c0.307,2.343,0.33,4.561-1.479,6.483c-0.933,0.99-1.672,2.138-3.23,2.821
						c0.307,0.114,0.58,0.182,0.842,0.216h0.136c1.115,0.068,1.956-0.535,2.934-0.876c0.057-0.023,0.114-0.046,0.182-0.068
						c-0.432,2.093-1.342,3.878-2.104,5.71c-0.728,1.786-0.99,3.594-0.682,5.528c1.171,7.552,2.809,15.025,4.697,22.44
						c1.126,4.436,2.536,8.803,3.128,13.376c0.091,0.762,0.353,1.547,1.012,2.081c1.74,1.41,3.64,2.298,5.869,2.32
						c0.284,0,0.58-0.011,0.887-0.034c2.036-0.182,4.06-0.227,6.119-0.318c0.057,0,0.125-0.011,0.182-0.011
						c0.364,1.274,0.682,2.502,1.058,3.697c0.102,0.341,0.023,0.591-0.136,0.876c-0.876,1.422-0.807,2.957-0.25,4.424
						c0.409,1.081,0.557,2.081,0.193,3.173c-0.284,0.796-0.341,1.638-0.262,2.468c0.091,0.842-0.216,1.331-0.944,1.797
						c-2.821,1.808-4.038,4.629-4.595,7.78c-0.66,3.753-0.193,7.427,1.16,10.975c1.604,4.174,1.149,8.28-0.478,12.272
						c-1.672,4.094-3.56,8.109-5.846,11.908c-8.792,14.547-17.242,29.287-24.26,44.801c-2.411,5.312-4.436,10.771-6.142,16.321
						c-0.034-0.068-0.068-0.125-0.102-0.193c-7.074-12.909-11.101-27.729-11.101-43.493V180.314
						c0-50.078,40.604-90.682,90.682-90.682c25.033,0,47.701,10.157,64.113,26.558C330.84,132.601,340.986,155.269,340.986,180.314z
						"/>
				</defs>
				<clipPath id="SVGID_00000063613896766790390140000016050641631225944763_">
					<use xlink:href="#SVGID_1_"  style="overflow:visible;"/>
				</clipPath>
				<path style="clip-path:url(#SVGID_00000063613896766790390140000016050641631225944763_);fill:#FFFFFF;" d="M181.695,262.12
					c3.079,1.335,3.83,3.931,3.696,6.979c-0.026,0.596,0.148,1.112,0.476,1.6c0.845,1.257,1.285,2.668,1.546,4.145
					c0.484,2.735-1.658,4.871-4.392,4.352c-4.117-0.781-7.643-2.488-9.78-6.336c-0.104-0.187-0.277-0.338-0.434-0.489
					c-0.053-0.051-0.156-0.05-0.363-0.109c0.643,3.637,1.265,7.22,1.659,11.021c2.331-2.754,5.378-2.683,8.408-2.671
					c0.333,0.001,0.643,0.089,0.688,0.457c0.051,0.418-0.299,0.652-0.605,0.775c-2.691,1.083-5.234,2.616-8.386,2.707
					c0.05,0.694,0.096,1.326,0.139,1.922c6.095,1.915,6.095,1.915,10.732,8.312c0.533-0.857,0.254-1.81,0.422-2.68
					c0.434-2.244,1.724-4.343,1.191-6.754c-0.371-1.676-0.04-3.316,0.293-4.941c0.714-3.481,3.763-4.603,6.519-2.372
					c2.39,1.935,3.895,4.356,3.757,7.58c-0.115,2.682-0.04,5.283,1.409,7.747c0.919,1.563,0.448,3.398-0.044,5.158
					c5.325-2.582,9.918-0.16,14.415,2.094c2.47,1.238,4.43,4.327,3.741,7.472c-0.285,1.301-1.007,1.912-2.218,2.004
					c-2.495,0.19-4.364,1.295-5.706,3.44c-1.878,3.001-5.142,3.849-8.358,2.252c-2.085-1.035-3.81-2.495-5.049-4.489
					c-0.48-0.773-0.945-1.555-1.492-2.457c-0.462,2.037-0.739,3.917-0.692,5.887c0.088,3.719,0.237,7.454-0.49,11.144
					c-0.19,0.965,0.131,1.653,0.933,2.349c2.911,2.53,2.76,5.021-0.635,6.689c-3.819,1.877-7.942,2.555-12.289,1.766
					c0.265,0.867,0.879,1.621,1.518,2.332c0.712,0.793,1.257,1.697,1.717,2.63c0.419,0.852,0.991,1.687,0.928,2.756
					c-1.589-1.014-1.661-3.11-3.211-4.306c0.578,2.109,0.264,3.957-1.017,5.659c-0.369,0.49-0.435,1.222-0.589,1.856
					c-0.239,0.989-0.596,1.926-1.169,2.765c-1.697,2.48-5.047,2.548-6.935,0.134c-1.749-2.237-2.18-4.909-2.428-7.628
					c-0.054-0.592-0.008-1.192-0.008-2c-1.173,0.785-2.153,1.47-3.282,1.951c-1.579,0.673-3.168,0.431-4.742,0.388
					c-1.409-0.039-2.216-1.119-1.965-2.714c0.606-3.844,2.101-7.226,5.552-9.422c0.837-0.532,1.676-1.059,2.517-1.59
					c-0.229-0.314-0.474-0.375-0.748-0.396c-2.545-0.196-4.17-1.792-5.61-3.68c-1.146-1.503-2.019-3.172-2.921-4.82
					c-1.164-2.127-0.407-4.625,1.583-5.484c0.807-0.348,1.62-0.393,2.415-0.028c1.077,0.493,2.199,0.845,3.319,1.217
					c2.119,0.703,2.288,0.885,5.079,4.498c0.787-1.377,0.525-2.961,0.896-4.417c0.389-1.53,1.114-2.988,2.702-3.248
					c1.703-0.279,2.19-1.41,2.894-2.78c-1.867,0.617-3.389-0.03-4.893-0.77c-1.495-0.735-3.146-0.67-4.735-0.926
					c-1.703-0.274-3.1-0.904-3.434-2.866c-0.311-1.828,0.838-2.814,2.053-3.787c0.132-0.105,0.268-0.204,0.438-0.332
					c-0.103-0.135-0.154-0.264-0.247-0.314c-4.821-2.595-8.232-6.759-11.873-10.666c-0.449-0.481-0.877-0.982-1.303-1.483
					c-0.269-0.316-0.776-0.597-0.421-1.099c0.33-0.467,0.816-0.157,1.212-0.055c0.588,0.153,1.171,0.349,1.728,0.592
					c5.881,2.564,11.228,5.795,14.361,11.767c1.154-0.401,2.234-0.318,3.322-0.237c0.062-0.909-0.27-1.504-1.037-1.856
					c-4.487-2.057-5.59-6.065-6.025-10.457c-0.013-0.131-0.005-0.263-0.003-0.395c0.033-2.508,1.223-3.419,3.65-2.792
					c0.973,0.251,1.852,0.728,2.829,1.314c0.298-1.276-0.089-2.39-0.206-3.467c-0.41-3.774-0.993-7.53-1.784-11.248
					c-0.027-0.128,0.006-0.299-0.066-0.384c-1.945-2.263-2.082-5.113-2.56-7.851c-0.092-0.524-0.239-1.015-0.731-1.424
					c-1.166,0.821-1.423,2.022-1.383,3.326c0.083,2.696-0.677,5.18-1.854,7.56c-0.211,0.426-0.458,0.883-0.81,1.181
					c-2.785,2.357-5.839,4.292-9.277,5.547c-1.257,0.459-2.136-0.242-2.552-1.724c-0.567-2.023,0.141-3.9,0.713-5.75
					c0.767-2.478,1.912-4.793,3.857-6.608c0.493-0.46,0.824-1.015,1.05-1.64c0.628-1.741,1.767-2.993,3.491-3.707
					c0.518-0.215,1.003-0.502,1.362-1.007c-2.021-0.834-4.049-0.573-6.079-0.267c-3.548,0.534-7.068-1.161-8.875-4.31
					c-0.653-1.138-1.272-2.286-2.042-3.361c-1.063-1.482-0.738-2.726,0.954-3.525c1.812-0.855,3.759-1.012,5.763-0.864
					c3.925,0.29,7.437,1.697,10.925,3.922c-1.035-2.679-1.121-5.137-0.476-7.754c0.298-1.209-0.172-2.679-0.096-4.033
					c0.117-2.1,0.677-4.032,2.157-5.636c1.718-1.862,3.706-1.786,5.153,0.316c1.124,1.633,1.606,3.522,1.607,5.464
					c0.001,1.958,0.235,3.773,1.123,5.576c0.883,1.793,0.937,3.796,0.507,5.79c0.423,0.111,0.668-0.188,0.94-0.34
					c2.72-1.523,5.33-1.122,7.786,0.546c0.96,0.652,1.866,0.967,3.04,0.891c3.135-0.203,5.26,3.185,4.136,6.399
					c-0.995,2.844-3.064,4.124-5.958,4.298c-0.306,0.018-0.612,0.03-0.918,0.051C181.777,261.954,181.76,262.009,181.695,262.12z
					 M191.728,326.441c0.735-4.018,0.362-8.186,0.182-12.508c-1.1,0.725-2.233,1.109-2.752,2.316
					c-1.388,3.23-3.882,5.084-7.296,5.783c-0.339,0.069-0.849,0.017-0.931,0.553c-0.177,1.151-0.743,2.172-1.162,3.241
					C183.819,325.287,187.658,326.425,191.728,326.441z M169.061,300.68c-3.168-5.294-8.081-8.254-13.422-10.868
					c0.053,0.217,0.048,0.312,0.092,0.363c3.485,4.05,7.047,8.011,11.814,10.643C168.098,301.123,168.52,300.993,169.061,300.68z
					 M190.965,301.981c-0.448,0.057-0.965,0.164-1.485,0.181c-0.732,0.023-1.358,0.218-1.372,1.047
					c-0.012,0.762,0.44,1.318,1.191,1.538c0.928,0.272,1.815,0.007,2.661-0.348c0.623-0.262,1.149-0.675,1.107-1.458
					c-0.048-0.906-0.874-0.675-1.382-0.893C191.496,301.967,191.256,302.004,190.965,301.981z M165.351,256.198
					c-0.014,0.947,0.851,1.97,1.694,2.004c0.782,0.032,2.008-1.359,1.929-2.296c-0.084-1.003-0.713-1.567-1.716-1.622
					C166.288,254.23,165.366,255.189,165.351,256.198z M175.078,328.572c-0.076-0.798-0.482-1.43-1.419-1.518
					c-0.919-0.086-2.199,1.248-2.21,2.233c-0.01,0.978,0.561,1.45,1.453,1.525C174.026,330.908,175.064,329.844,175.078,328.572z
					 M180.966,281.474c-2.172,0.166-4.365,0.275-6.1,2.266C177.245,283.469,179.159,282.615,180.966,281.474z M174.746,260.781
					c-1.33-0.848-2.407-1.534-3.535-2.254C171.15,259.962,171.787,260.374,174.746,260.781z"/>
				<path style="clip-path:url(#SVGID_00000063613896766790390140000016050641631225944763_);fill:#FFFFFF;" d="M333.793,229.506
					c-1.342,3.009-2.981,5.353-5.648,6.928c-1.046,0.618-0.709,2.081-1.108,3.125c-0.134,0.351-0.087,0.771-0.119,1.123
					c0.063,0.068,0.085,0.115,0.12,0.127c5.1,1.799,4.376,6.834,2.126,9.775c-1.057,1.382-2.345,2.588-3.754,4.119
					c2.253,0.262,3.019,1.927,4.026,3.456c0.626,0.952,1.753,1.561,2.591,2.389c2.036,2.012,1.671,5.211-0.751,6.767
					c-1.766,1.134-3.696,1.465-5.837,1.004c0.27,4.374,0.669,8.635,1.328,12.854c0.647,4.146,1.811,8.196,3.021,12.203
					c-1.082,0.344-1.254-0.278-1.384-0.74c-1.359-4.824-2.713-9.646-3.291-14.653c-0.381-3.3-0.872-6.587-1.033-9.909
					c-0.014-0.289-0.12-0.502-0.366-0.652c-1.625-0.992-2.87-2.374-4.008-4.172c-0.99,8.842-1.696,17.44-2.289,26.05
					c-0.269-0.021-0.539-0.042-0.808-0.064c0.087-8.339,0.923-16.641,1.543-24.994c-0.208,0.453-0.455,0.893-0.618,1.362
					c-0.665,1.911-1.859,3.501-3.646,4.314c-1.947,0.886-2.265,2.41-2.458,4.192c-0.429,3.956-0.842,7.913-1.06,11.887
					c-0.01,0.178-0.033,0.355-0.384,0.437c-0.379,0.011-0.367-0.359-0.384-0.711c-0.118-2.505,0.069-5.007,0.437-7.469
					c0.207-1.382-0.19-2.072-1.332-2.708c-3.92-2.183-7.57-4.74-10.703-7.992c-1.838-1.908-3.184-4.173-4.704-6.312
					c-0.865-1.216-1.752-2.41-2.785-3.488c-0.244-0.255-0.593-0.496-0.344-0.883c0.255-0.397,0.606-0.16,0.93-0.023
					c5.671,2.381,11.007,5.243,14.916,10.489c0.412-1.652,0.522-3.191,1.077-4.626c0.578-1.494,1.931-2.329,3.19-3.823
					c-3.435,0.865-5.88-0.821-8.422-2.035c-2.356-1.125-3.353-3.503-2.761-6.059c0.324-1.398,1.442-1.997,2.659-2.239
					c1.097-0.218,2.26-0.24,3.383,0.098c1.82,0.548,3.723,0.849,5.616,2.041c-0.714-1.782-1.249-3.316-1.495-4.954
					c-0.333-2.215,0.235-4.201,1.408-5.981c1.576-2.393,3.712-2.371,5.437-0.106c1.347,1.769,1.771,3.876,2.157,5.981
					c0.117,0.639,0.186,1.287,0.384,2.038c1.496-2.927,3.185-5.671,2.875-9.135c-1.915-0.084-3.625-0.972-5.091-2.371
					c-1.05-1.002-1.097-2.298-0.064-3.34c2.301-2.323,4.29-4.998,7.656-6.591c-1.227-0.171-2.103-0.393-2.979-0.396
					c-2.422-0.009-4.618-0.91-6.845-1.656c-1.964-0.658-2.525-2.026-2.355-3.812c0.373-3.921,4.352-5.554,8.267-4.765
					c0.428,0.086,0.837,0.266,1.371,0.093c-0.599-1.499-1.239-2.962-1.715-4.492c-0.623-2.001-0.521-3.971-0.033-5.95
					c0.45-1.826,1.842-2.814,3.408-3.587c0.479-0.237,1.01-0.103,1.531,0.085c1.616,0.586,3.108,1.389,4.536,2.517
					c0.673-1.109,0.77-2.333,1.076-3.472c1.141-4.249,2.489-8.454,3.145-12.818c0.822-5.475,1.257-10.967-0.135-16.424
					c-0.402-1.575-1.03-3.077-2.166-4.299c-0.723-0.777-1.541-1.396-2.915-1.602c2.195,2.537,3.202,5.323,3.372,8.374
					c0.173,3.113-0.485,6.095-2.746,8.35c-1.821,1.816-2.777,3.762-2.402,6.329c0.076,0.516,0.014,1.052,0.015,1.579
					c0.001,0.54-0.254,0.869-0.75,1.111c-0.519,0.253-0.996,0.013-1.163-0.299c-0.833-1.557-2.345-2.431-3.489-3.665
					c-0.719-0.776-0.971-1.839-1.252-2.926c-1.156,0.623-2.325,0.601-3.512,0.205c-0.282-0.094-0.63-0.268-0.865-0.182
					c-1.562,0.572-1.891-0.45-2.209-1.592c-0.402-1.445-0.142-2.87,0.587-4.041c0.945-1.518,1.394-3.172,1.974-4.966
					c-1.006,0.182-1.948,0.375-2.898,0.518c-2.304,0.347-4.006-0.604-4.943-2.725c-0.139-0.314-0.245-0.691-0.486-0.904
					c-3.065-2.705-1.58-7.387,2.271-8.849c1.809-0.687,3.622-0.916,5.695-0.533c-1.886-1.827-3.266-3.837-3.735-6.311
					c-0.267-1.408-0.637-2.733-1.261-4.04c-0.651-1.362,0.136-3.308,1.417-4.156c0.527-0.349,1.119-0.355,1.356,0.215
					c1.437,3.445,4.76,4.416,7.659,5.949c1.045,0.553,2.12,1.054,3.133,1.659c3.453,2.06,5.119,5.399,4.733,9.369
					c4.744,1.278,5.889,5.164,6.699,9.271c0.285,1.445,0.34,2.922,0.385,4.456c1.602-2.361,3.604-4.127,6.189-5.107
					c0.47,0.386,0.347,0.768,0.189,1.05c-1.281,2.283-2.36,4.757-4.777,6.122c-1.256,0.709-1.799,1.614-1.89,3.079
					c-0.243,3.929-1.161,7.752-2.322,11.802c1.416-1.339,2.373-2.676,3.338-3.995c4.684-6.397,11.144-10.545,17.952-14.26
					c0.301-0.164,0.596-0.408,0.954-0.102c0.38,0.325,0.146,0.681-0.019,0.946c-3.791,6.109-7.354,12.431-14.152,15.849
					c-1.599,0.804-3.268,1.468-4.855,2.292c-2.667,1.384-4.69,3.333-5.257,6.452c-0.062,0.341-0.165,0.686-0.314,0.997
					c-0.692,1.448-0.581,2.611,0.764,3.743c1.111,0.935,1.668,2.33,1.976,3.784c0.449,2.122,1.904,3.926,1.852,6.186
					c0.439-0.025,0.503-0.332,0.672-0.513c1.381-1.476,2.765-2.876,4.894-3.33c1.438-0.307,2.798-0.963,4.204-1.429
					c1.9-0.629,3.75-0.239,5.437,0.618c2.067,1.05,2.611,3.67,1.192,5.514c-1.229,1.596-2.511,3.145-3.653,4.813
					c-1.082,1.58-2.701,2.311-4.628,2.318c-0.612,0.002-1.224,0-1.929,0.135c1.181,0.939,1.994,2.161,2.99,3.22
					c1.942,2.065,3.387,4.452,4.613,6.989c0.503,1.041,0.756,2.148,0.848,3.284c0.195,2.405-1.899,4.048-4.205,3.367
					c-0.897-0.265-1.784-0.585-2.44-1.226c-1.637-1.599-3.41-3.019-5.244-4.377c-1.823-1.349-2.828-3.307-3.781-5.29
					C334.233,230.448,334.075,230.105,333.793,229.506z M354.072,177.949c-6.016,2.517-18.713,13.871-19.789,17.546
					c3.754-2.353,8.031-3.864,11.382-6.916C348.99,185.549,351.309,181.751,354.072,177.949z M308.757,274.268
					c-2.662-7.954-8.72-12.181-16.07-15.431C296.64,265.651,301.959,270.652,308.757,274.268z M322.353,241.911
					c2.596-0.172,3.851-1.56,3.669-4.293c-0.972,0.636-2.117,0.647-3.161,0.993C322.681,239.786,322.51,240.894,322.353,241.911z
					 M332.85,221.536c-1.075-0.023-1.953,0.73-1.962,1.609c-0.01,0.917,0.776,1.608,1.866,1.584
					c1.024-0.023,1.702-0.576,1.722-1.594C334.496,222.08,333.751,221.625,332.85,221.536z M315.858,257.162
					c1.051-0.025,1.473-0.7,1.502-1.602c0.027-0.835-0.43-1.458-1.331-1.421c-0.959,0.039-1.521,0.671-1.534,1.61
					C314.485,256.585,314.966,257.115,315.858,257.162z M340.538,174.492c-2.091,1.454-3.348,3.129-4.222,5.114
					C338.094,178.381,339.677,176.995,340.538,174.492z M308.935,272.019c0.437,0.973,0.846,1.882,1.396,3.103
					c0.203-1.371,0.353-2.381,0.515-3.475C310.166,271.78,309.621,271.886,308.935,272.019z"/>
			</g>
		</g>
		<g>
			<path style="fill:#FFFFFF;" d="M340.986,286.839v25.25c0,3.856-0.239,7.654-0.705,11.374v0.034
				c-0.046,0.387-0.102,0.762-0.159,1.137c0,0.011,0,0.034-0.011,0.046c-0.535,3.867-1.297,7.643-2.309,11.328
				c-0.023,0.068-0.034,0.125-0.057,0.193c-0.159,0.569-0.319,1.149-0.489,1.706c-0.023,0.057-0.034,0.125-0.057,0.182
				c-1.9,6.381-4.493,12.454-7.666,18.152c-0.023,0.046-0.045,0.08-0.068,0.125c-0.193,0.353-0.398,0.705-0.603,1.046
				c-0.023,0.046-0.045,0.08-0.068,0.125c-1.103,1.899-2.263,3.742-3.492,5.539c-0.023,0.034-0.057,0.08-0.08,0.114
				c-0.296,0.444-0.58,0.864-0.887,1.285c-0.034,0.045-0.057,0.08-0.091,0.125c-4.004,5.641-8.644,10.794-13.808,15.366
				c-0.034,0.034-0.08,0.068-0.114,0.102c-0.284,0.25-0.569,0.5-0.853,0.751c-0.046,0.034-0.08,0.068-0.125,0.102
				c-15.866,13.614-36.487,21.849-59.029,21.849c-16.776,0-32.472-4.549-45.95-12.488c-0.387-0.228-0.785-0.466-1.171-0.716
				c-12.966-7.893-23.794-18.937-31.403-32.097c-0.034-0.057-0.068-0.125-0.102-0.182c-0.284-0.5-0.569-1.001-0.853-1.513
				c1.706-5.55,3.731-11.01,6.142-16.321c7.018-15.514,15.468-30.254,24.26-44.801c2.286-3.799,4.174-7.814,5.846-11.908
				c1.626-3.992,2.081-8.098,0.478-12.272c-1.353-3.549-1.82-7.222-1.16-10.975c0.557-3.151,1.774-5.971,4.595-7.78
				c0.728-0.466,1.035-0.955,0.944-1.797c-0.08-0.83-0.023-1.672,0.262-2.468c0.364-1.092,0.216-2.093-0.193-3.173
				c-0.557-1.467-0.626-3.003,0.25-4.424c0.159-0.284,0.239-0.535,0.136-0.876c-0.375-1.194-0.694-2.423-1.058-3.697
				c-0.057,0-0.125,0.011-0.182,0.011c-2.059,0.091-4.083,0.137-6.119,0.318c-0.307,0.023-0.603,0.034-0.887,0.034
				c-2.229-0.023-4.129-0.91-5.869-2.32c-0.66-0.535-0.921-1.319-1.012-2.081c-0.592-4.572-2.002-8.94-3.128-13.376
				c-1.888-7.415-3.526-14.888-4.697-22.44c-0.307-1.934-0.046-3.742,0.682-5.528c0.762-1.831,1.672-3.617,2.104-5.71
				c-0.068,0.023-0.125,0.046-0.182,0.068c-0.978,0.341-1.82,0.944-2.934,0.876h-0.136c-0.262-0.034-0.535-0.102-0.842-0.216
				c1.558-0.682,2.297-1.831,3.23-2.821c1.809-1.922,1.786-4.14,1.479-6.483c-0.546-4.265-1.206-8.519-0.637-12.818
				c0.682-5.095,2.343-9.861,5.118-14.206c1.558-2.445,3.014-4.959,5.334-6.79c0.41-0.33,0.398-0.785,0.5-1.171
				c0.739-2.889,1.706-5.698,2.991-8.382c0.455-0.933,0.705-1.809,2.161-2.093c1.467-0.284,2.9-1.137,4.413-1.57
				c6.153-1.717,12.397-3.014,18.744-3.73c4.458-0.512,8.894-1.058,13.387-1.217c0.58-0.023,1.171-0.046,1.751-0.046
				c1.171-0.011,2.32,0.011,3.469,0.057c14.16,0.58,26.455,5.857,37.101,15.536c5.732,5.209,11.328,10.578,15.65,17.026
				c6.255,9.315,11.704,19.074,15.343,29.799c2.15,6.301,4.208,12.591,5.402,19.142c0.819,4.47-0.171,8.746-1.717,12.852
				c-3.594,9.588-10.714,15.389-20.45,18.016c-4.095,1.103-8.144,2.411-12.34,3.059c-2.593,0.41-5.209,0.705-7.825,0.933
				c-3.298,0.284-6.585,0.762-9.986,0.796c1.081,0.705,2.161,1.41,3.219,2.15c2.616,1.809,4.947,3.89,6.676,6.619
				c1.388,2.172,1.809,4.538,1.444,7.029c-0.182,1.217,0.102,1.888,1.263,2.445c2.172,1.058,4.083,2.57,5.88,4.174
				c1.809,1.638,3.822,2.866,6.074,3.81c4.117,1.74,7.973,4.003,11.783,6.312c9.645,5.846,20.006,10.009,30.868,12.898
				C339.302,286.464,340.144,286.669,340.986,286.839z"/>
			<path style="fill:#BC8F65;" d="M402.745,279.867c-1.137-1.228-2.593-1.57-4.163-1.615c-5.562-0.159-10.805,1.354-16.014,3.06
				c-8.303,2.718-16.628,5.368-25.397,6.244c-5.459,0.546-10.862,0.398-16.185-0.694c-0.898-0.182-1.797-0.387-2.695-0.625
				c-10.873-2.878-21.223-7.029-30.868-12.875c-3.822-2.32-7.677-4.584-11.794-6.324c-2.252-0.944-4.254-2.172-6.074-3.799
				c-1.786-1.615-3.697-3.128-5.869-4.186c-1.16-0.557-1.456-1.228-1.274-2.445c0.375-2.491-0.057-4.856-1.433-7.029
				c-1.74-2.73-4.072-4.811-6.688-6.631c-1.058-0.728-2.138-1.433-3.207-2.15c3.401-0.023,6.688-0.501,9.986-0.785
				c2.616-0.228,5.221-0.523,7.814-0.933c4.197-0.66,8.246-1.956,12.34-3.059c9.747-2.639,16.856-8.428,20.461-18.016
				c1.547-4.106,2.525-8.382,1.717-12.852c-1.194-6.551-3.264-12.841-5.402-19.142c-3.64-10.725-9.099-20.473-15.354-29.799
				c-4.322-6.449-9.906-11.817-15.639-17.026c-10.612-9.633-22.861-14.911-36.93-15.536c-1.149-0.046-2.298-0.068-3.469-0.057
				c-0.58,0-1.171,0.023-1.751,0.046c-4.549,0.148-9.042,0.705-13.557,1.217c-6.358,0.716-12.591,2.013-18.744,3.73
				c-1.513,0.421-2.946,1.285-4.424,1.57c-1.444,0.284-1.695,1.16-2.15,2.093c-1.297,2.684-2.263,5.493-3.003,8.382
				c-0.091,0.387-0.091,0.842-0.489,1.16c-2.32,1.842-3.787,4.356-5.334,6.79c-2.775,4.356-4.447,9.122-5.13,14.217
				c-0.569,4.299,0.091,8.564,0.648,12.818c0.307,2.332,0.33,4.561-1.49,6.483c-0.921,0.99-1.661,2.138-3.219,2.809
				c0.364,0.137,0.705,0.205,1.012,0.227h0.136c1.092,0,1.945-0.626,2.946-0.944c0,0.023-0.011,0.046-0.011,0.068
				c-0.455,2.059-1.354,3.833-2.093,5.641c-0.728,1.786-1.001,3.594-0.694,5.528c1.183,7.552,2.821,15.025,4.697,22.44
				c1.126,4.436,2.536,8.803,3.128,13.376c0.102,0.762,0.364,1.547,1.024,2.081c1.786,1.456,3.731,2.343,6.039,2.32
				c0.227,0,0.478-0.011,0.717-0.034c2.081-0.182,4.174-0.227,6.29-0.33v0.011c0.364,1.285,0.694,2.491,1.058,3.685
				c0.102,0.341,0.034,0.603-0.136,0.864c-0.864,1.433-0.808,2.969-0.239,4.436c0.41,1.081,0.557,2.081,0.182,3.173
				c-0.273,0.796-0.341,1.638-0.25,2.468c0.08,0.842-0.216,1.331-0.944,1.797c-2.821,1.808-4.038,4.629-4.595,7.78
				c-0.66,3.765-0.193,7.427,1.16,10.975c1.592,4.174,1.149,8.28-0.478,12.272c-1.672,4.094-3.56,8.109-5.857,11.897
				c-8.792,14.558-17.231,29.298-24.26,44.812c-2.389,5.255-4.379,10.634-6.062,16.128c0.034,0.068,0.068,0.125,0.102,0.193
				c0.284,0.512,0.569,1.012,0.853,1.513c2.832-8.246,6.085-16.321,9.986-24.146c5.016-10.043,10.077-20.04,16.048-29.56
				c3.912-6.233,7.666-12.568,10.43-19.426c1.683-4.208,2.206-8.53,0.99-12.909c-1.012-3.674-1.729-7.336-1.331-11.146
				c0.341-3.185,1.513-5.949,4.424-7.655c1.626-0.944,3.355-1.672,5.186-2.15c5.05-1.331,10.248-1.433,15.4-1.479
				c5.687-0.046,11.362,0.398,16.981,1.49c9.076,1.74,17.766,4.584,25.898,9.008c1.41,0.773,2.786,1.615,3.969,2.775
				c-17.504-5.766-35.327-5.596-53.263-3.162c0.637,0.443,1.297,0.353,1.934,0.296c4.857-0.444,9.713-0.58,14.581-0.716
				c8.303-0.239,16.537,0.546,24.692,2.116c4.447,0.864,8.905,1.774,13.182,3.367c1.388,0.512,2.172,1.365,2.695,2.752
				c2.184,5.801,3.526,11.794,4.117,17.959c0.58,5.88,1.24,11.76,1.547,17.663c0.353,6.915,1.001,13.796,1.877,20.655
				c0.819,6.472,1.956,12.875,3.378,19.221c1.933,8.655,5.209,16.867,8.394,25.113c1.82,4.72,4.004,9.235,6.54,13.569
				c0.307,0.534,0.626,1.058,0.944,1.581c1.183,1.945,3.822,2.98,6.028,2.548c2.696-0.535,5.141-1.672,7.507-3.014
				c1.854-1.058,3.662-2.241,5.744-2.855c3.753-1.115,7.37-0.193,10.93,0.91c3.969,1.228,7.723,3.048,11.544,4.674
				c6.278,2.684,12.784,3.901,19.483,2.73c8.86-1.535,15.73-6.312,20.632-13.876c0.239-0.364,0.5-0.739,0.25-1.137
				c-13.944-0.557-25.272-7.256-36.18-15.002c1.968,0.432,3.958,0.637,5.857,0.205c5.198-1.194,6.392-4.891,5.459-9.679
				c-0.83-4.276-2.343-8.417-3.094-12.716c-0.284-1.604-0.614-3.207-0.626-4.936c0.398,0.091,0.603,0.136,0.808,0.193
				c5.641,1.638,11.374,1.809,17.174,1.228c2.047-0.216,4.015-0.933,6.039-1.035c3.151-0.159,5.585-1.535,7.439-3.89
				c5.505-7.029,7.325-15.082,6.301-23.851c-0.478-4.129-2.036-8.064-2.377-12.215c-0.273-3.435,0.125-6.722,2.377-9.565
				C401.949,280.766,402.608,280.538,402.745,279.867z M239.578,125.379c4.879-0.409,9.736-0.307,14.581,0.091
				c6.642,0.546,12.795,2.787,18.675,5.801c7.848,4.026,14.126,10.031,20.302,16.173c7.871,7.836,13.728,17.106,18.493,27.001
				c4.834,10.043,8.678,20.53,10.43,31.63c0.591,3.753-0.353,7.427-1.638,10.93c-3.583,9.69-10.873,15.081-20.62,17.481
				c-3.605,0.898-7.12,2.195-10.805,2.73c-6.403,0.933-12.75,2.229-19.233,2.57c-0.682,0.034-1.297-0.102-1.888-0.421
				c-4.629-2.571-9.713-3.583-14.877-4.333c-3.105-0.455-6.21-0.898-9.326-1.342c16.844-3.822,32.017-10.646,44.391-22.884
				c-1.069,0.091-1.729,0.865-2.445,1.49c-8.212,7.052-17.538,12.067-27.74,15.639c-5.732,2.002-11.601,3.549-17.424,5.266
				c-0.751,0.227-1.456,0.046-2.195,0.023c-2.809-0.102-5.607,0.023-8.382,0.455c-0.216,0.034-0.432,0-0.819,0
				c0.796-0.705,1.661-0.944,2.457-1.331c6.46-3.139,12.966-6.187,18.766-10.487c8.587-6.358,15.423-14.274,21.019-23.327
				c1.968-3.196,3.969-6.381,5.63-9.758c0.284-0.58,0.557-1.16,0.432-1.899c-3.753,6.574-7.893,12.886-12.613,18.801
				c-4.788,5.971-10.259,11.226-16.401,15.73c-0.307-0.216-0.171-0.341-0.091-0.41c9.781-9.292,18.027-19.847,25.454-31.061
				c0.853-1.285,1.763-2.514,2.661-3.753c0.273-0.375,0.5-0.864,1.024-0.955c0.853-0.148,0.364-0.66,0.421-1.035
				c-0.808-0.262-1.137,0.296-1.513,0.682c-2.207,2.229-3.89,4.857-5.698,7.382c-6.142,8.564-12.602,16.867-19.722,24.635
				c-2.991,3.276-6.256,6.29-9.827,8.928c-2.457,1.831-5.323,3.014-8.018,4.459c-2.127,1.126-4.288,2.195-6.381,3.367
				c-1.263,0.705-2.639,0.785-4.152,1.115c8.598-13.876,16.367-28.07,25.648-41.366c-0.739-0.057-0.99,0.409-1.296,0.785
				c-5.641,7.074-10.441,14.729-15.218,22.372c-3.662,5.869-7.359,11.726-10.441,17.936c-0.182,0.353-0.353,0.705-0.807,0.807
				c-1.558,0.353-3.048,0.933-4.777,1.592c1.501-3.583,2.718-7.018,4.14-10.395c3.708-8.792,8.291-17.186,11.931-26
				c4.64-11.214,8.121-22.77,10.168-34.769c1.024-6.017,2.138-12.022,3.014-18.061c0.205-1.433,0.648-2.912,0.193-4.436
				c-0.512,0.466-0.569,0.455-0.83,2.275c-0.853,6.005-2.081,11.931-3.207,17.88c-1.445,7.689-3.048,15.32-5.55,22.736
				c-2.548,7.495-5.38,14.877-8.928,21.974c-0.114,0.227-0.239,0.455-0.489,0.637c0.466-2.468,0.967-4.936,1.376-7.416
				c0.603-3.753,1.115-7.518,1.467-11.294c0.614-6.654,0.614-13.319,0.842-19.984c0.227-6.745,0.535-13.501,1.285-20.211
				c0.762-6.813,1.49-13.648,3.367-20.291C235.506,125.629,235.597,125.72,239.578,125.379z M202.625,233.975
				c-2.389-0.569-3.992-1.797-4.413-4.629c-0.58-3.958-1.774-7.825-2.627-11.749c-1.604-7.393-3.605-14.683-4.766-22.167
				c-0.319-2.025,0.023-3.901,0.694-5.778c0.853-2.377,2.172-4.584,2.605-7.12c0.466-2.752,0.5-5.539,0.057-8.246
				c-1.82-11.169,1.149-21.064,7.666-30.072c0.068-0.102,0.205-0.148,0.375-0.262c-1.331,7.313-1.956,14.615-1.683,21.985
				c0.159,4.515,0.364,9.019,0.728,13.523c0.375,4.697,1.024,9.383,1.467,14.081c0.33,3.435,0.648,6.87,1.092,10.293
				c0.99,7.632,2.491,15.15,4.925,22.463c0.83,2.468,1.388,5.027,2.07,7.598C208.005,234.236,205.298,234.611,202.625,233.975z
				 M211.144,230.028c-1.365-5.55-3.242-10.964-4.288-16.605c-1.137-6.187-2.229-12.363-2.798-18.641
				c-0.58-6.312-1.319-12.613-1.706-18.937c-0.421-6.745-0.569-13.489-0.125-20.257c0.523-7.768,1.934-15.332,4.72-22.622
				c0.353-0.899,0.716-1.354,1.751-1.661c6.29-1.922,12.682-3.321,19.13-4.47c2.184-0.398,4.413-0.603,6.824-0.921
				c-1.206,2.468-2.059,4.902-2.684,7.416c-1.183,4.754-1.933,9.577-2.57,14.433c-1.57,11.954-1.24,23.976-1.342,35.986
				c-0.057,6.335-0.682,12.647-1.751,18.914c-0.546,3.207-1.103,6.415-1.877,9.588c-0.523,2.104-1.672,3.924-2.525,5.88
				c-2.343,5.368-4.891,10.646-6.79,16.196c-0.262,0.773-0.591,1.57-0.66,2.377c-0.057,0.728-0.375,1.103-1.171,1.49
				C212.554,235.419,211.815,232.735,211.144,230.028z M279.943,260.487c-8.303-5.255-17.095-8.883-26.535-10.976
				c-7.495-1.661-15.059-2.354-22.69-2.013c-5.402,0.239-10.873,0.216-16.026,2.263c-0.569,0.227-1.126,0.432-1.774,0.682
				c-0.33-1.262-0.193-2.411,0.421-3.446c0.637-1.081,0.614-2.127,0.227-3.264c-0.262-0.773-0.512-1.513-0.341-2.411
				c0.33-1.888,1.342-2.923,3.116-3.571c3.503-1.274,7.12-1.968,10.782-2.445c1.649-0.216,3.298-0.41,4.959-0.523
				c4.504-0.307,8.997-0.034,13.478,0.523c4.413,0.557,8.86,1.058,13.182,2.127c7.234,1.797,13.853,4.834,19.13,10.304
				c2.138,2.207,3.549,4.732,3.651,7.893C281.592,257.495,280.603,258.951,279.943,260.487z M368.135,367.092
				c4.504,2.138,8.94,4.413,13.842,5.573c2.775,0.66,5.55,1.16,8.644,0.933c-1.626,2.616-3.514,4.731-5.755,6.472
				c-4.47,3.469-9.417,5.971-15.127,6.415c-5.289,0.409-10.487-0.216-15.434-2.343c-4.174-1.786-8.439-3.401-12.579-5.266
				c-2.536-1.137-4.64-2.991-6.631-4.902c-3.549-3.389-6.836-6.995-9.872-10.782c-4.265-5.311-8.053-10.987-11.465-16.958
				c-4.856-8.508-9.065-17.311-12.272-26.569c-0.148-0.409-0.318-0.807-0.489-1.206c-0.046-0.114-0.159-0.205-0.375-0.455
				c0.125,1.683,0.728,3.037,1.228,4.413c5.22,14.16,11.829,27.604,20.666,39.876c0.569,0.785,1.137,1.547,1.729,2.309
				c3.685,4.709,7.905,8.951,12.579,12.852c-0.364,0.227-0.762,0.148-1.092,0.08c-3.514-0.694-6.779,0.023-9.861,1.752
				c-2.752,1.524-5.414,3.23-8.428,4.242c-1.911,0.637-3.674,0.58-5.312-0.739c-0.569-0.466-0.978-1.012-1.285-1.638
				c-0.182-0.364-0.352-0.716-0.523-1.08c-5.368-11.021-9.77-22.452-13.239-34.212c-2.002-6.79-3.196-13.785-4.208-20.791
				c-1.103-7.632-1.786-15.286-2.172-22.997c-0.387-7.825-0.898-15.662-2.047-23.418c-0.478-3.241-1.376-6.392-2.411-9.588
				c0.512,0.648,1.035,1.274,1.535,1.922c0.512,0.66,1.001,1.331,1.479,2.013c4.22,6.074,7.245,12.75,9.668,19.699
				c3.799,10.873,7.45,21.803,11.908,32.438c2.821,6.733,5.346,13.614,9.304,19.802c2.639,4.14,5.334,8.246,8.291,12.159
				c0.114,0.148,0.228,0.296,0.364,0.444c1.945,2.434,4.436,4.322,6.767,6.369c0.466,0.409,0.591,0.398,1.615,0.273
				c-1.137-1.024-2.093-1.956-3.116-2.798c-1.786-1.479-3.253-3.196-4.595-5.016c-1.763-2.343-3.31-4.868-5.027-7.256
				c-5.653-7.882-9.076-16.856-12.807-25.67c-4.379-10.339-8.087-20.939-11.863-31.505c-2.513-7.074-5.664-13.842-10.054-19.961
				c-1.376-1.934-2.969-3.685-4.493-5.493c-1.433-1.695-2.491-3.697-4.379-5.061c0.307-0.648,0.58-1.217,0.876-1.842
				c1.729,0.807,3.264,1.888,4.743,3.014c6.483,4.948,11.931,10.839,16.458,17.618c5.926,8.86,10.862,18.289,16.128,27.524
				c5.835,10.248,11.533,20.586,18.152,30.356c0.898,1.331,1.82,2.65,2.764,3.958c3.105,4.322,6.358,8.542,10.077,12.318
				C355.26,359.676,361.356,363.884,368.135,367.092z M364.7,342.343c0.569,2.366,1.49,4.641,1.911,7.063
				c0.705,4.026-1.808,7.245-5.903,7.382c-3.765,0.125-6.949-0.887-9.611-3.81c-4.845-5.311-9.292-10.896-13.353-16.776
				c-1.308-1.9-2.582-3.833-3.81-5.789c-2.32-3.696-4.675-7.37-6.858-11.544c2.843,1.672,5.528,2.968,8.291,4.083
				c1.569,0.626,3.139,1.228,4.743,1.729c2.468,0.785,4.982,1.353,7.609,1.501c5.118,0.296,9.838-1.24,14.467-3.196
				c0.319-0.137,0.625-0.318,0.944-0.466c0.057-0.023,0.148,0.034,0.307,0.068C361.265,329.331,363.153,335.826,364.7,342.343z
				 M363.813,329.184c-0.148-1.865,0.08-3.605,0.512-5.311c0.751-2.923,2.73-3.924,5.585-2.855c1.797,0.682,3.287,1.842,4.709,3.071
				c2.946,2.514,6.051,4.754,9.815,6.13C378.428,331.686,367.782,330.73,363.813,329.184z M397.718,287.886
				c-0.239,2.98,0.353,5.812,1.069,8.724c-4.231-0.205-8.03,1.308-11.84,2.639c-5.585,1.945-11.249,3.537-17.117,4.22
				c-4.788,0.569-9.588,0.648-14.422,0.137c-4.925-0.523-9.725-1.467-14.422-2.832c-3.128-0.91-6.21-2.002-9.247-3.298
				c-1.319-0.557-2.616-1.172-3.924-1.751c-0.034,0-0.08,0.068-0.171,0.148c1.672,1.319,3.617,2.07,5.516,2.843
				c2.57,1.058,5.186,2.036,7.825,2.878c3.64,1.172,7.359,2.104,11.18,2.684c5.653,0.853,11.294,1.024,17.004,0.432
				c8.03-0.83,15.559-3.469,23.123-5.994c2.15-0.717,4.333-1.262,6.654-1.513c0.318,1.319,0.603,2.536,0.91,3.787
				c-4.549,0.785-8.496,3.162-12.829,4.458c-4.982,1.49-9.986,2.753-15.161,3.401c-3.753,0.478-7.495,0.614-11.26,0.501
				c-0.66-0.023-1.308-0.011-1.956,0.182c7.086,1.206,14.058,0.034,21.041-1.103c7.063-1.149,13.626-3.901,20.279-6.597
				c1.456,8.496,0.011,16.196-4.652,23.157c-3.139,4.675-7.757,5.607-12.875,2.912c-2.548-1.342-4.777-3.094-7.018-4.868
				c-1.99-1.57-3.992-3.105-6.631-3.537c-1.16-0.193-2.172,0.034-3.185,0.478c-4.117,1.809-8.246,3.571-12.716,4.402
				c-4.299,0.796-8.473,0.296-12.613-0.876c-0.159-0.034-0.307-0.079-0.466-0.125c-4.413-1.285-8.655-2.957-12.613-5.311
				c-0.591-0.353-1.024-0.762-1.353-1.365c-6.142-10.759-12.204-21.564-18.493-32.244c-3.333-5.675-7.143-11.044-11.669-15.866
				c-0.148-0.148-0.262-0.318-0.398-0.478c2.514,0.944,4.811,2.263,7.086,3.617c6.346,3.776,12.704,7.552,19.597,10.305
				c6.199,2.48,12.454,4.879,19.017,6.21c0.216,0.046,0.421,0.08,0.637,0.125c4.413,0.853,8.849,1.081,13.341,0.83
				c10.782-0.625,20.859-4.163,31.027-7.359c4.22-1.331,8.519-2.286,12.989-2.286c0.785,0,1.547,0.091,2.457,0.466
				C398.991,282.119,397.968,284.792,397.718,287.886z"/>
			<path style="fill:#EDB77B;" d="M360.708,356.787c-3.765,0.125-6.949-0.887-9.611-3.81c-4.845-5.311-9.292-10.896-13.353-16.776
				c-1.308-1.9-2.582-3.833-3.81-5.789c-2.32-3.696-4.675-7.37-6.858-11.544c2.843,1.672,5.528,2.968,8.291,4.083
				c1.569,0.626,3.139,1.228,4.743,1.729c2.468,0.785,4.982,1.353,7.609,1.501c5.118,0.296,9.838-1.24,14.467-3.196
				c0.319-0.137,0.625-0.318,0.944-0.466c0.057-0.023,0.148,0.034,0.307,0.068c-2.172,6.745-0.284,13.239,1.263,19.756
				c0.569,2.366,1.49,4.641,1.911,7.063C367.316,353.432,364.802,356.651,360.708,356.787z"/>
			<path style="fill:#EDB77B;" d="M390.62,373.598c-1.626,2.616-3.514,4.731-5.755,6.472c-4.47,3.469-9.417,5.971-15.127,6.415
				c-5.289,0.409-10.487-0.216-15.434-2.343c-4.174-1.786-8.439-3.401-12.579-5.266c-2.536-1.137-4.64-2.991-6.631-4.902
				c-3.549-3.389-6.836-6.995-9.872-10.782c-4.265-5.311-8.053-10.987-11.465-16.958c-4.856-8.508-9.065-17.311-12.272-26.569
				c-0.148-0.409-0.318-0.807-0.489-1.206c-0.046-0.114-0.159-0.205-0.375-0.455c0.125,1.683,0.728,3.037,1.228,4.413
				c5.22,14.16,11.829,27.604,20.666,39.876c0.569,0.785,1.137,1.547,1.729,2.309c3.685,4.709,7.905,8.951,12.579,12.852
				c-0.364,0.227-0.762,0.148-1.092,0.08c-3.514-0.694-6.779,0.023-9.861,1.752c-2.752,1.524-5.414,3.23-8.428,4.242
				c-1.911,0.637-3.674,0.58-5.312-0.739c-0.569-0.466-0.978-1.012-1.285-1.638c-0.182-0.364-0.352-0.716-0.523-1.08
				c-5.368-11.021-9.77-22.452-13.239-34.212c-2.002-6.79-3.196-13.785-4.208-20.791c-1.103-7.632-1.786-15.286-2.172-22.997
				c-0.387-7.825-0.898-15.662-2.047-23.418c-0.478-3.241-1.376-6.392-2.411-9.588c0.512,0.648,1.035,1.274,1.535,1.922
				c0.512,0.66,1.001,1.331,1.479,2.013c4.22,6.074,7.245,12.75,9.668,19.699c3.799,10.873,7.45,21.803,11.908,32.438
				c2.821,6.733,5.346,13.614,9.304,19.802c2.639,4.14,5.334,8.246,8.291,12.159c0.114,0.148,0.228,0.296,0.364,0.444
				c1.945,2.434,4.436,4.322,6.767,6.369c0.466,0.409,0.591,0.398,1.615,0.273c-1.137-1.024-2.093-1.956-3.116-2.798
				c-1.786-1.479-3.253-3.196-4.595-5.016c-1.763-2.343-3.31-4.868-5.027-7.256c-5.653-7.882-9.076-16.856-12.807-25.67
				c-4.379-10.339-8.087-20.939-11.863-31.505c-2.513-7.074-5.664-13.842-10.054-19.961c-1.376-1.934-2.969-3.685-4.493-5.493
				c-1.433-1.695-2.491-3.697-4.379-5.061c0.307-0.648,0.58-1.217,0.876-1.842c1.729,0.807,3.264,1.888,4.743,3.014
				c6.483,4.948,11.931,10.839,16.458,17.618c5.926,8.86,10.862,18.289,16.128,27.524c5.835,10.248,11.533,20.586,18.152,30.356
				c0.898,1.331,1.82,2.65,2.764,3.958c3.105,4.322,6.358,8.542,10.077,12.318c5.22,5.311,11.317,9.52,18.095,12.727
				c4.504,2.138,8.94,4.413,13.842,5.573C384.752,373.325,387.527,373.825,390.62,373.598z"/>
			<path style="fill:#EDB77B;" d="M397.718,287.886c-0.239,2.98,0.353,5.812,1.069,8.724c-4.231-0.205-8.03,1.308-11.84,2.639
				c-5.585,1.945-11.249,3.537-17.117,4.22c-4.788,0.569-9.588,0.648-14.422,0.137c-4.925-0.523-9.725-1.467-14.422-2.832
				c-3.128-0.91-6.21-2.002-9.247-3.298c-1.319-0.557-2.616-1.172-3.924-1.751c-0.034,0-0.08,0.068-0.171,0.148
				c1.672,1.319,3.617,2.07,5.516,2.843c2.57,1.058,5.186,2.036,7.825,2.878c3.64,1.172,7.359,2.104,11.18,2.684
				c5.653,0.853,11.294,1.024,17.004,0.432c8.03-0.83,15.559-3.469,23.123-5.994c2.15-0.717,4.333-1.262,6.654-1.513
				c0.318,1.319,0.603,2.536,0.91,3.787c-4.549,0.785-8.496,3.162-12.829,4.458c-4.982,1.49-9.986,2.753-15.161,3.401
				c-3.753,0.478-7.495,0.614-11.26,0.501c-0.66-0.023-1.308-0.011-1.956,0.182c7.086,1.206,14.058,0.034,21.041-1.103
				c7.063-1.149,13.626-3.901,20.279-6.597c1.456,8.496,0.011,16.196-4.652,23.157c-3.139,4.675-7.757,5.607-12.875,2.912
				c-2.548-1.342-4.777-3.094-7.018-4.868c-1.99-1.57-3.992-3.105-6.631-3.537c-1.16-0.193-2.172,0.034-3.185,0.478
				c-4.117,1.809-8.246,3.571-12.716,4.402c-4.299,0.796-8.473,0.296-12.613-0.876c-0.159-0.034-0.307-0.079-0.466-0.125
				c-4.413-1.285-8.655-2.957-12.613-5.311c-0.591-0.353-1.024-0.762-1.353-1.365c-6.142-10.759-12.204-21.564-18.493-32.244
				c-3.333-5.675-7.143-11.044-11.669-15.866c-0.148-0.148-0.262-0.318-0.398-0.478c2.514,0.944,4.811,2.263,7.086,3.617
				c6.346,3.776,12.704,7.552,19.597,10.305c6.199,2.48,12.454,4.879,19.017,6.21c0.216,0.046,0.421,0.08,0.637,0.125
				c4.413,0.853,8.849,1.081,13.341,0.83c10.782-0.625,20.859-4.163,31.027-7.359c4.22-1.331,8.519-2.286,12.989-2.286
				c0.785,0,1.547,0.091,2.457,0.466C398.991,282.119,397.968,284.792,397.718,287.886z"/>
			<path style="fill:#EDB77B;" d="M281.524,255.63c0.068,1.865-0.921,3.321-1.581,4.857c-8.303-5.255-17.095-8.883-26.535-10.976
				c-7.495-1.661-15.059-2.354-22.69-2.013c-5.402,0.239-10.873,0.216-16.026,2.263c-0.569,0.227-1.126,0.432-1.774,0.682
				c-0.33-1.262-0.193-2.411,0.421-3.446c0.637-1.081,0.614-2.127,0.227-3.264c-0.262-0.773-0.512-1.513-0.341-2.411
				c0.33-1.888,1.342-2.923,3.116-3.571c3.503-1.274,7.12-1.968,10.782-2.445c1.649-0.216,3.298-0.41,4.959-0.523
				c4.504-0.307,8.997-0.034,13.478,0.523c4.413,0.557,8.86,1.058,13.182,2.127c7.234,1.797,13.853,4.834,19.13,10.304
				C280.012,249.943,281.422,252.468,281.524,255.63z"/>
			<path style="fill:#EDB77B;" d="M234.653,125.913c-1.206,2.468-2.059,4.902-2.684,7.416c-1.183,4.754-1.933,9.577-2.57,14.433
				c-1.57,11.954-1.24,23.976-1.342,35.986c-0.057,6.335-0.682,12.647-1.751,18.914c-0.546,3.207-1.103,6.415-1.877,9.588
				c-0.523,2.104-1.672,3.924-2.525,5.88c-2.343,5.368-4.891,10.646-6.79,16.196c-0.262,0.773-0.591,1.57-0.66,2.377
				c-0.057,0.728-0.375,1.103-1.171,1.49c-0.728-2.775-1.467-5.459-2.138-8.166c-1.365-5.55-3.242-10.964-4.288-16.605
				c-1.137-6.187-2.229-12.363-2.798-18.641c-0.58-6.312-1.319-12.613-1.706-18.937c-0.421-6.745-0.569-13.489-0.125-20.257
				c0.523-7.768,1.934-15.332,4.72-22.622c0.353-0.899,0.716-1.354,1.751-1.661c6.29-1.922,12.682-3.321,19.13-4.47
				C230.013,126.437,232.242,126.232,234.653,125.913z"/>
			<path style="fill:#EDB77B;" d="M320.422,217.005c-3.583,9.69-10.873,15.081-20.62,17.481c-3.605,0.898-7.12,2.195-10.805,2.73
				c-6.403,0.933-12.75,2.229-19.233,2.57c-0.682,0.034-1.297-0.102-1.888-0.421c-4.629-2.571-9.713-3.583-14.877-4.333
				c-3.105-0.455-6.21-0.898-9.326-1.342c16.844-3.822,32.017-10.646,44.391-22.884c-1.069,0.091-1.729,0.865-2.445,1.49
				c-8.212,7.052-17.538,12.067-27.74,15.639c-5.732,2.002-11.601,3.549-17.424,5.266c-0.751,0.227-1.456,0.046-2.195,0.023
				c-2.809-0.102-5.607,0.023-8.382,0.455c-0.216,0.034-0.432,0-0.819,0c0.796-0.705,1.661-0.944,2.457-1.331
				c6.46-3.139,12.966-6.187,18.766-10.487c8.587-6.358,15.423-14.274,21.019-23.327c1.968-3.196,3.969-6.381,5.63-9.758
				c0.284-0.58,0.557-1.16,0.432-1.899c-3.753,6.574-7.893,12.886-12.613,18.801c-4.788,5.971-10.259,11.226-16.401,15.73
				c-0.307-0.216-0.171-0.341-0.091-0.41c9.781-9.292,18.027-19.847,25.454-31.061c0.853-1.285,1.763-2.514,2.661-3.753
				c0.273-0.375,0.5-0.864,1.024-0.955c0.853-0.148,0.364-0.66,0.421-1.035c-0.808-0.262-1.137,0.296-1.513,0.682
				c-2.207,2.229-3.89,4.857-5.698,7.382c-6.142,8.564-12.602,16.867-19.722,24.635c-2.991,3.276-6.256,6.29-9.827,8.928
				c-2.457,1.831-5.323,3.014-8.018,4.459c-2.127,1.126-4.288,2.195-6.381,3.367c-1.263,0.705-2.639,0.785-4.152,1.115
				c8.598-13.876,16.367-28.07,25.648-41.366c-0.739-0.057-0.99,0.409-1.296,0.785c-5.641,7.074-10.441,14.729-15.218,22.372
				c-3.662,5.869-7.359,11.726-10.441,17.936c-0.182,0.353-0.353,0.705-0.807,0.807c-1.558,0.353-3.048,0.933-4.777,1.592
				c1.501-3.583,2.718-7.018,4.14-10.395c3.708-8.792,8.291-17.186,11.931-26c4.64-11.214,8.121-22.77,10.168-34.769
				c1.024-6.017,2.138-12.022,3.014-18.061c0.205-1.433,0.648-2.912,0.193-4.436c-0.512,0.466-0.569,0.455-0.83,2.275
				c-0.853,6.005-2.081,11.931-3.207,17.88c-1.445,7.689-3.048,15.32-5.55,22.736c-2.548,7.495-5.38,14.877-8.928,21.974
				c-0.114,0.227-0.239,0.455-0.489,0.637c0.466-2.468,0.967-4.936,1.376-7.416c0.603-3.753,1.115-7.518,1.467-11.294
				c0.614-6.654,0.614-13.319,0.842-19.984c0.227-6.745,0.535-13.501,1.285-20.211c0.762-6.813,1.49-13.648,3.367-20.291
				c1.115-3.901,1.206-3.81,5.186-4.151c4.879-0.409,9.736-0.307,14.581,0.091c6.642,0.546,12.795,2.787,18.675,5.801
				c7.848,4.026,14.126,10.031,20.302,16.173c7.871,7.836,13.728,17.106,18.493,27.001c4.834,10.043,8.678,20.53,10.43,31.63
				C322.651,209.828,321.707,213.502,320.422,217.005z"/>
		</g>
		<g>
			<path style="fill:#FFFFFF;" d="M309.595,137.459c-4.427,1.129-5.342,2.043-6.471,6.471c-1.128-4.427-2.043-5.342-6.47-6.471
				c4.427-1.128,5.342-2.043,6.47-6.47C304.253,135.416,305.167,136.33,309.595,137.459z"/>
			<path style="fill:#FFFFFF;" d="M198.382,241.127c-3.513,0.896-4.239,1.622-5.135,5.135c-0.896-3.513-1.622-4.239-5.135-5.135
				c3.513-0.896,4.239-1.622,5.135-5.135C194.142,239.506,194.868,240.232,198.382,241.127z"/>
			<path style="fill:#FFFFFF;" d="M184.572,222.703c-2.196,0.56-2.65,1.014-3.21,3.21c-0.56-2.196-1.014-2.65-3.21-3.21
				c2.196-0.56,2.65-1.014,3.21-3.21C181.922,221.69,182.376,222.143,184.572,222.703z"/>
		</g>
	</g>
</g>
<g id="TEXTS">
	<g>
		<path id="SVGID_x5F_00000032635228553188342330000012631565376050059411_x5F_" style="fill:none;" d="M151.633,180.308
			c0-54.411,44.266-98.677,98.676-98.677c54.41,0,98.677,44.266,98.677,98.677"/>
		<text>		<textPath  xlink:href="#SVGID_x5F_00000032635228553188342330000012631565376050059411_x5F_" startOffset="0%">
<tspan  style="fill:#BC8F65; font-family:'PlayfairDisplayRoman-Medium'; font-size:16px; letter-spacing:220;">CAREFREE SCARFS</tspan>		</textPath>
</text>
	</g>
	<g>
		<path id="SVGID_x5F_00000067925999854217062450000004070967909908146052_x5F_" style="fill:none;" d="M148.379,180.308V316.44
			c0,56.204,45.726,101.929,101.93,101.929c56.204,0,101.929-45.725,101.929-101.929V180.308"/>
		<text>		<textPath  xlink:href="#SVGID_x5F_00000067925999854217062450000004070967909908146052_x5F_" startOffset="0.0978%">
<tspan  style="fill:#BC8F65; font-family:'MontserratRoman-Regular'; font-size:14px; letter-spacing:160;">SINCE 1991</tspan>		</textPath>
</text>
	</g>
</g>
</svg>
